# xmcd
# 
# Track frame offsets:
#     150
#     25605
#     44730
#     68355
#     94230
#     132855
#     156035
#     173507
#     204935
#     234782
#     264635
# 
# Disc length: 3705
# 
# Revision: 2
# Processed by: cddbd v1.5.2PL0 Copyright (c) Steve Scherf et al.
# Submitted via: fre:ac v1.1beta1pre5
# 
DISCID=810e770b
DTITLE=Various Artist - Jazz 101 - Introduction to Jazz Saxophone
DYEAR=2000
DGENRE=Jazz
TTITLE0=Al Cohn - 01 I Remember You
TTITLE1=Scott Hamilton - 02 Stuffy
TTITLE2=Lew Tabackin - 03 This Time The Dream's On Me
TTITLE3=Ken Peplowski - 04 Sonny Side
TTITLE4=Jesse Davis - 05 Stardust
TTITLE5=Frank Wess - 06 Surprise! Surprise!
TTITLE6=Flip Phillips - 07 Cotton Tail
TTITLE7=Ricky Woodard - 08 September In The Rain
TTITLE8=Stan Getz - 09 Blue Skies
TTITLE9=Phil Woods Quintet - 10 My Man Benny
TTITLE10=Chris Potter - 11 Every Time We Say Goodbye
EXTD=YEAR: 2000
EXTT0=
EXTT1=
EXTT2=
EXTT3=
EXTT4=
EXTT5=
EXTT6=
EXTT7=
EXTT8=
EXTT9=
EXTT10=
PLAYORDER=
